<svg width="620" height="161" viewBox="0 0 620 161" fill="none" xmlns="http://www.w3.org/2000/svg">
<g clip-path="url(#clip0_1996_32521)">
<path d="M598.347 124.312H618.661L594.98 156.963C593.547 158.938 591.163 160.119 588.616 160.119L579.175 160.11H572.394L598.351 124.312H598.347ZM613.594 109.084H555.606L563.455 117.701C565.984 120.587 567.913 122.197 570.048 122.851H619.724L620 122.468V115.082C620 111.773 617.129 109.084 613.594 109.084Z" fill="#F96800"/>
<path d="M58.0997 135.19H57.5752V133.579H57.7204C59.9822 133.579 61.6773 132.776 62.8106 131.165C63.9391 129.555 64.5058 127.029 64.5058 123.584V119.289C64.5058 116.292 63.7565 113.92 62.258 112.174C60.7595 110.428 58.6897 109.555 56.0486 109.555H0V159.886H56.3811C59.055 159.886 61.181 158.98 62.7591 157.169C64.3372 155.357 65.1239 152.771 65.1239 149.419V144.788C65.1239 138.392 62.7825 135.19 58.0997 135.19ZM17.6308 121.768H46.0602C46.5706 121.768 46.8235 122.127 46.8235 122.842V127.739C46.8235 128.453 46.5659 128.812 46.0602 128.812H17.6308V121.768ZM47.4463 146.599C47.4463 147.314 47.1887 147.673 46.683 147.673H17.6308V139.956H46.683C47.1934 139.956 47.4463 140.316 47.4463 141.03V146.599ZM85.3864 109.555H67.7556V159.886H119.117V142.776H85.3911V109.56L85.3864 109.555ZM142.283 109.555L119.922 159.886H139.033L142.854 150.287H168.75L172.571 159.886H192.876L170.178 109.555H142.273H142.283ZM148.113 137.136L154.182 121.903H157.478L163.5 137.136H148.117H148.113ZM249.744 109.289H200.766C198.252 109.289 196.299 110.251 194.913 112.174C193.527 114.097 192.834 116.847 192.834 120.428V149.013C192.834 152.547 193.527 155.287 194.913 157.234C196.299 159.181 198.247 160.152 200.766 160.152H249.744C252.291 160.152 254.253 159.181 255.621 157.234C256.988 155.287 257.677 152.547 257.677 149.013V139.083H240.046V143.85C240.046 144.162 239.976 144.41 239.83 144.587C239.685 144.765 239.503 144.858 239.282 144.858H211.237C211.012 144.858 210.83 144.769 210.689 144.587C210.544 144.41 210.474 144.162 210.474 143.85V125.596C210.474 125.283 210.544 125.036 210.689 124.858C210.834 124.681 211.017 124.588 211.237 124.588H239.282C239.507 124.588 239.69 124.676 239.83 124.858C239.976 125.036 240.046 125.283 240.046 125.596V130.292H257.677V120.428C257.677 116.847 256.993 114.097 255.621 112.174C254.249 110.251 252.291 109.289 249.744 109.289ZM322.74 109.555H299.087L281.887 125.797H278.529V109.555H260.898V159.886H278.529V142.907H281.934L298.703 159.886H323.025L296.89 134.587L322.74 109.555ZM397.402 109.084H347.193C344.679 109.084 342.726 110.045 341.34 111.969C339.954 113.892 339.261 116.642 339.261 120.222V148.803C339.261 152.337 339.954 155.077 341.34 157.019C342.726 158.966 344.674 159.937 347.193 159.937H397.402C399.95 159.937 401.907 158.966 403.279 157.019C404.647 155.073 405.335 152.332 405.335 148.803V120.222C405.335 116.646 404.651 113.892 403.279 111.969C401.907 110.045 399.95 109.084 397.402 109.084ZM387.653 143.64C387.653 143.952 387.582 144.2 387.437 144.377C387.292 144.555 387.11 144.643 386.889 144.643H357.65C357.425 144.643 357.243 144.555 357.102 144.377C356.957 144.2 356.887 143.952 356.887 143.64V125.39C356.887 125.078 356.957 124.83 357.102 124.653C357.247 124.475 357.43 124.382 357.65 124.382H386.889C387.114 124.382 387.297 124.471 387.437 124.653C387.582 124.83 387.653 125.078 387.653 125.39V143.64ZM464.146 109.354H408.632V159.676H426.263V146.725H464.146C466.661 146.725 468.605 145.764 469.977 143.84C471.344 141.917 472.032 139.19 472.032 135.656V120.428C472.032 116.894 471.349 114.167 469.977 112.244C468.605 110.321 466.666 109.359 464.146 109.359V109.354ZM454.355 131.628C454.355 131.94 454.284 132.188 454.139 132.365C453.994 132.543 453.812 132.631 453.591 132.631H426.267V123.374H453.591C454.102 123.374 454.355 123.733 454.355 124.447V131.628ZM535.892 132.099C534.777 130.311 533.007 129.326 530.591 129.149L490.412 126.128C489.841 126.128 489.551 125.727 489.551 124.919V123.911C489.551 123.598 489.616 123.364 489.743 123.206C489.869 123.052 490.028 122.972 490.22 122.972H522.326C522.579 122.972 522.757 123.038 522.85 123.173C522.944 123.308 522.995 123.532 522.995 123.845V126.189L537.161 123.486L537.184 119.083C537.184 115.909 536.585 113.449 535.391 111.703C534.197 109.957 532.502 109.088 530.301 109.088H482.241C479.979 109.088 478.228 109.961 476.987 111.703C475.746 113.449 475.123 115.909 475.123 119.083V129.55C475.123 135.904 477.464 139.256 482.147 139.615L522.326 142.566C522.644 142.612 522.869 142.725 522.995 142.902C523.122 143.079 523.187 143.35 523.187 143.705V145.115C523.187 145.74 522.963 146.053 522.518 146.053H489.509C489.097 146.053 488.886 145.764 488.886 145.18V142.211H474.65V149.947C474.65 153.121 475.254 155.581 476.467 157.328C477.675 159.074 479.38 159.942 481.581 159.942H530.455C532.75 159.942 534.506 159.069 535.733 157.328C536.96 155.581 537.573 153.126 537.573 149.947V139.345C537.573 136.305 537.016 133.887 535.901 132.099H535.892Z" fill="white"/>
<path d="M285.02 19.6589C284.706 19.3275 284.256 19.1734 283.797 19.1734H265.623C265.165 19.1734 264.71 19.3275 264.401 19.6589C263.291 20.8307 262.392 21.9745 260.894 23.8886C260.664 24.1827 260.547 24.5842 260.547 24.9576V54.9432C260.547 55.3167 260.664 55.7135 260.894 56.0077C262.388 57.9217 263.291 59.0655 264.401 60.2373C264.715 60.5687 265.165 60.7228 265.623 60.7228H283.797C284.256 60.7228 284.711 60.5687 285.02 60.2373C286.125 59.0655 287.029 57.9217 288.527 56.0077C288.757 55.7135 288.874 55.3121 288.874 54.9432V24.9576C288.874 24.5842 288.757 24.1873 288.527 23.8886C287.038 21.9745 286.129 20.8307 285.02 19.6589ZM278.014 51.764H271.402V28.1322H278.014V51.764ZM155.718 1.09709C155.015 0.345467 154.009 -2.98606e-07 152.974 -2.98606e-07H117.08C116.045 -2.98606e-07 115.038 0.340798 114.336 1.08775C111.859 3.7161 107.855 8.23985 104.511 12.5255C103.996 13.1884 103.743 14.0848 103.743 14.9204V96.0958H128.052V67.7862H142.007V96.0958H166.315V14.9298C166.315 14.0894 166.062 13.1931 165.547 12.5348C162.203 8.24452 158.2 3.72077 155.722 1.09709H155.718ZM142.011 51.806H128.056V16.0082H142.011V51.806ZM87.625 1.09709C86.9226 0.345467 85.9158 -2.98606e-07 84.8809 -2.98606e-07H48.9871C47.9522 -2.98606e-07 46.9454 0.340798 46.243 1.08775C43.7611 3.7161 39.7573 8.23985 36.4137 12.5302C35.8986 13.1931 35.6458 14.0894 35.6458 14.9251V81.1754C35.6458 82.0157 35.8986 82.9121 36.4137 83.5703C39.7573 87.8606 43.7611 92.3797 46.2383 95.0127C46.9407 95.755 47.9475 96.1005 48.9824 96.1005H84.8762C85.9111 96.1005 86.9179 95.7597 87.6203 95.0127C90.0975 92.3844 94.1013 87.8606 97.4448 83.5703C97.96 82.9074 98.2128 82.011 98.2128 81.1754V54.5651H73.9043V80.0923H59.9496V16.0082H73.9043V41.5354H98.2128V14.9298C98.2128 14.0894 97.96 13.1931 97.4448 12.5348C94.1013 8.24452 90.0975 3.72077 87.6203 1.09709H87.625ZM248.128 -2.98606e-07H221.507V96.1005H266.757V77.9681H248.128V-2.98606e-07ZM198.317 -2.98606e-07H171.696V96.1005H216.946V77.9681H198.313V-2.98606e-07H198.317ZM380.601 1.09709V1.08775C379.898 0.345467 378.891 -2.98606e-07 377.856 -2.98606e-07H328.631V96.1005H377.856C378.891 96.1005 379.898 95.7597 380.601 95.0127C383.078 92.3844 387.082 87.8606 390.425 83.5703C390.94 82.9074 391.193 82.011 391.193 81.1754V14.9298C391.193 14.0894 390.94 13.1931 390.425 12.5348C387.082 8.24452 383.078 3.72077 380.601 1.09709ZM366.889 80.0876H352.944V16.0082H366.889V80.0876ZM581.493 41.8949V-2.98606e-07H558.768V35.7185L552.895 42.6932H550.442L544.527 35.7185V-2.98606e-07H521.848V41.8949C521.848 42.7118 522.134 43.5055 522.658 44.1404L538.557 63.3045V96.0958H564.738V63.3045L580.683 44.1404C581.212 43.5055 581.493 42.7118 581.493 41.8949ZM464.573 19.6776H478.687V96.1005H502.995V19.6776H517.109V-2.98606e-07H464.577V19.6776H464.573ZM293.5 60.7275H304.36V47.0115H315.987V37.3618H304.36V28.8231H317.486V19.1734H293.5V60.7321V60.7275ZM435.057 80.0876H421.098V-2.98606e-07H396.789V81.1754C396.789 82.0157 397.042 82.9121 397.557 83.5703C400.901 87.8606 404.904 92.3797 407.382 95.0127C408.084 95.755 409.091 96.1005 410.126 96.1005H446.019C447.054 96.1005 448.061 95.7597 448.764 95.0127C451.241 92.3844 455.245 87.8606 458.588 83.5703C459.108 82.9074 459.356 82.011 459.356 81.1754V-2.98606e-07H435.048V80.0876H435.057Z" fill="white"/>
<path d="M586.41 86.9923C586.279 86.8522 586.115 86.7635 585.919 86.7308L585.933 86.4321H586.518C587.019 86.4321 587.403 86.2967 587.684 86.0212C587.96 85.7458 588.096 85.377 588.096 84.9101V83.0894C588.096 82.5386 587.942 82.1184 587.618 81.8149C587.309 81.5162 586.869 81.3668 586.289 81.3668H579.171V90.7224H580.899V86.9689H584.448L586.176 90.7224H588.283L586.827 87.6925C586.677 87.3658 586.532 87.1323 586.401 86.9923H586.41ZM580.903 85.5964V82.7533H586.111C586.19 82.7533 586.256 82.772 586.293 82.814C586.34 82.856 586.359 82.9167 586.359 83.0007V85.3443C586.359 85.4377 586.34 85.503 586.293 85.5451C586.256 85.5777 586.19 85.5964 586.111 85.5964H580.903ZM583.484 76.2828C577.981 76.2828 573.523 80.7179 573.523 86.1893C573.523 91.6607 577.981 96.0958 583.484 96.0958C588.986 96.0958 593.449 91.6607 593.449 86.1893C593.449 80.7179 588.986 76.2828 583.484 76.2828ZM583.484 94.5739C578.829 94.5739 575.059 90.8204 575.059 86.194C575.059 81.5675 578.829 77.8141 583.484 77.8141C588.138 77.8141 591.908 81.5675 591.908 86.194C591.908 90.8204 588.134 94.5739 583.484 94.5739Z" fill="white"/>
</g>
<defs>
<clipPath id="clip0_1996_32521">
<rect width="620" height="160.157" fill="white"/>
</clipPath>
</defs>
</svg>
